# xmcd
#
# Track frame offsets:
#	150
#	14252
#	31707
#	43235
#	60062
#	74232
#	92045
#	108860
#	120550
#	138860
#	159745
#	173112
#	193875
#	218775
#	235092
#	249582
#	266865
#	277317
#	292440
#	309382
#
# Disc length: 4273 seconds
#
# Revision: 0
# Processed by: cddbd v1.4PL0 Copyright (c) Steve Scherf et al.
# Submitted via: EasyCDDAExtractor 4.6.9.1
#
DISCID=3010af14
DTITLE=Various Artist - Millennium Coutry
DYEAR=2000
DGENRE=Country
TTITLE0=The Mavericks - Someone Should Tell Her
TTITLE1=Reba Mc Entire - Forever Love
TTITLE2=Freddy Fender - Before The Next Teadrop Fall
TTITLE3=Vince Gill - Don't Let Our Love Start Slippin'away
TTITLE4=Randy Travis - The Hole - Dreamworks
TTITLE5=Sammy Kershaw - Honky Tonk America
TTITLE6=Joe Ely Honky Tonk Masquerade
TTITLE7=Mark Chesnutt - Goin' Throught The Big D
TTITLE8=Jack Ingram - Dim Light Thick Smoke (& Loud Music)
TTITLE9=Willie Nelson - I Just Can't Let You Say Good Bye
TTITLE10=John Hiatt - Tennessee Plates
TTITLE11=Lucinda Williams - Right In Tim
TTITLE12=Chris Knight - The Hammer Going Down
TTITLE13=Big House - Blue Train
TTITLE14=Marty Stuart - Wheels
TTITLE15=Chely Wright - Shut Up And Drive
TTITLE16=The Kentucky Headhunter - Only Daddy That'll Walk The Line
TTITLE17=Kathy Mattea - Eighteen Wheels And A Dozen Roses
TTITLE18=Matraca Berg - Along For The Ride
TTITLE19=Roger Miller - King Of The Road
EXTD=
EXTT0=
EXTT1=
EXTT2=
EXTT3=
EXTT4=
EXTT5=
EXTT6=
EXTT7=
EXTT8=
EXTT9=
EXTT10=
EXTT11=
EXTT12=
EXTT13=
EXTT14=
EXTT15=
EXTT16=
EXTT17=
EXTT18=
EXTT19=
PLAYORDER=
